<svg id="Layer_2" data-name="Layer 2" xmlns="http://www.w3.org/2000/svg" viewBox="0 0 300 20.82"><defs><style>.cls-1{fill:#fabd43;}.cls-2{fill:#ead3b4;}</style></defs><title>kongen_logo</title><path class="cls-1" d="M193.59,20.45c-2.36-2.66-4.84-5.66-7.59-8.91-.7-.83-1.13-.95-1.65-.86V16.5c0,2.69.31,2.91,2.82,3.09v.86h-8v-.86c2.33-.18,2.6-.4,2.6-3.09v-12c0-2.79-.28-2.94-2.69-3.12V.55H187v.86c-2.36.18-2.66.4-2.66,3.12V9.89a5.3,5.3,0,0,0,2.14-1.41,70.52,70.52,0,0,0,5.14-5.42c.89-1.1.89-1.41-.52-1.56l-.67-.09V.55h7.35v.86c-2.33.21-3,.52-5,2.3-1.16,1.07-3.34,3.25-5.42,5.36,2.33,2.88,5.66,6.67,7.19,8.33s2.24,2,3.74,2.2v.86Z" transform="translate(0 -0.09)"/><path class="cls-1" d="M217.89,10.25c0,6.61-4.62,10.65-10.22,10.65a9.89,9.89,0,0,1-10-10.19C197.72,5.2,201.57.09,208,.09A9.87,9.87,0,0,1,217.89,10.25Zm-17.05-.4c0,5.76,3.15,10,7.47,10,3.4,0,6.46-2.85,6.46-8.73,0-6.46-3.37-9.89-7.38-9.89C204,1.19,200.84,4.13,200.84,9.86Z" transform="translate(0 -0.09)"/><path class="cls-1" d="M240.06,1.41c-1.71.09-2.45.49-2.57,1.84a42.64,42.64,0,0,0-.18,5.14V20.73h-.95l-13-16h-.06v7.69a51.25,51.25,0,0,0,.18,5.17c.15,1.56.86,1.93,2.94,2.05v.86h-7.25v-.86c1.77-.09,2.54-.49,2.69-2,.09-.95.18-2.42.18-5.24V5.63c0-2.24-.06-2.36-.61-3.09s-1.29-1-2.72-1.13V.55h4.53L236,15.92H236V8.39a45.62,45.62,0,0,0-.21-5.08c-.15-1.38-.89-1.78-3-1.9V.55h7.22Z" transform="translate(0 -0.09)"/><path class="cls-1" d="M261.09,12.06c-1.84.28-2,.43-2,2.24v2.6a13.79,13.79,0,0,0,.21,2.88,29.68,29.68,0,0,1-6.86,1.13c-6.74,0-11.24-4.19-11.24-10.26,0-7.1,5.69-10.56,11.69-10.56a25.58,25.58,0,0,1,5.88.89c.09,1.07.25,2.76.49,4.78l-.86.18c-.74-3.74-3.06-4.74-6-4.74-4.68,0-8.11,3.43-8.11,9.09,0,4.41,2.6,9.55,8.51,9.55a6.13,6.13,0,0,0,2.66-.55c.61-.34,1-.7,1-2v-2.6c0-2.2-.21-2.39-3.21-2.63v-.83h7.78Z" transform="translate(0 -0.09)"/><path class="cls-1" d="M277.9,15.61c-.18,1-.8,3.89-1.07,4.84H262.07v-.86c2.79-.21,3-.46,3-2.94V4.47c0-2.76-.24-2.85-2.63-3.06V.55h13.65c0,.77.15,2.85.24,4.41l-.89.15a7.93,7.93,0,0,0-1-2.63c-.43-.64-1.26-.86-3.46-.86h-2.33c-.95,0-1,.06-1,1v7h2.88c2.76,0,2.91-.24,3.31-2.3h.89v5.88h-.89c-.4-2.2-.61-2.39-3.27-2.39H267.7v5.79c0,1.44.18,2.08.74,2.48a6.91,6.91,0,0,0,3.18.4c2.33,0,3.18-.24,3.86-1a8.94,8.94,0,0,0,1.5-2.88Z" transform="translate(0 -0.09)"/><path class="cls-1" d="M300,1.41c-1.71.09-2.45.49-2.57,1.84a42.64,42.64,0,0,0-.18,5.14V20.73h-.95l-13-16h-.06v7.69a51.25,51.25,0,0,0,.18,5.17c.15,1.56.86,1.93,2.94,2.05v.86h-7.25v-.86c1.77-.09,2.54-.49,2.69-2,.09-.95.18-2.42.18-5.24V5.63c0-2.24-.06-2.36-.61-3.09s-1.29-1-2.72-1.13V.55h4.53L295.9,15.92H296V8.39a45.62,45.62,0,0,0-.21-5.08c-.15-1.38-.89-1.78-3-1.9V.55H300Z" transform="translate(0 -0.09)"/><path class="cls-2" d="M9.08,13.14a16.31,16.31,0,0,1-.86,2.32,12.78,12.78,0,0,1-2.79.41c-3.78,0-5.43-2.61-5.43-5C0,7.67,2.46,5.56,5.84,5.56A12,12,0,0,1,8.52,6c.12.86.21,1.47.3,2.29l-.46.11A2.64,2.64,0,0,0,5.43,6.11c-2.53,0-3.88,2.14-3.88,4.44,0,2.84,1.67,4.78,4,4.78,1.55,0,2.37-.83,3.12-2.35Z" transform="translate(0 -0.09)"/><path class="cls-2" d="M20.91,6.21c-1.24.11-1.36.18-1.36,1.44v6.13c0,1.27.12,1.35,1.35,1.44v.42H16.83v-.42c1.29-.09,1.42-.17,1.42-1.44v-3H13.08v3c0,1.26.12,1.35,1.36,1.44v.42h-4v-.42c1.21-.09,1.33-.17,1.33-1.44V7.65c0-1.27-.12-1.33-1.36-1.44V5.79h3.93v.42c-1.15.11-1.27.18-1.27,1.44v2.46h5.17V7.65c0-1.26-.12-1.33-1.3-1.44V5.79h4Z" transform="translate(0 -0.09)"/><path class="cls-2" d="M31.58,15.77l-.53,0a2.76,2.76,0,0,1-2.46-1.38c-.53-.74-1.08-1.68-1.53-2.43-.26-.42-.52-.61-1.3-.61h-.49v2.41c0,1.29.14,1.38,1.35,1.47v.42h-4v-.42C23.88,15.13,24,15,24,13.75V7.65c0-1.29-.12-1.33-1.3-1.44V5.79h3.76a4.28,4.28,0,0,1,2.43.52,2.27,2.27,0,0,1,1,2A2.76,2.76,0,0,1,28,10.88c.26.5.89,1.52,1.35,2.2a13.15,13.15,0,0,0,1.23,1.58,2.16,2.16,0,0,0,1.09.71ZM26,10.84a2.51,2.51,0,0,0,1.65-.42,2.18,2.18,0,0,0,.83-1.88,2.05,2.05,0,0,0-2.23-2.24,1.48,1.48,0,0,0-.82.15c-.11.08-.17.26-.17.67v3.73Z" transform="translate(0 -0.09)"/><path class="cls-2" d="M33,15.65v-.42c1.24-.09,1.36-.18,1.36-1.47V7.68c0-1.29-.12-1.38-1.36-1.47V5.79h4v.42c-1.24.09-1.36.18-1.36,1.47v6.07c0,1.3.12,1.38,1.36,1.47v.42Z" transform="translate(0 -0.09)"/><path class="cls-2" d="M44.22,8.09c-.27-1-.67-2-2-2a1.59,1.59,0,0,0-1.68,1.67c0,1.11.73,1.62,1.93,2.24s2.62,1.32,2.62,3-1.35,2.87-3.37,2.87a5.27,5.27,0,0,1-1.49-.23,5.19,5.19,0,0,1-.74-.32A18.7,18.7,0,0,1,39.1,13l.44-.11c.24.93.92,2.46,2.49,2.46a1.69,1.69,0,0,0,1.82-1.82c0-1.12-.83-1.65-2-2.26-1-.52-2.5-1.27-2.5-3a2.82,2.82,0,0,1,3.12-2.7,6.28,6.28,0,0,1,1.91.35c.06.55.14,1.14.26,2.09Z" transform="translate(0 -0.09)"/><path class="cls-2" d="M54.33,8.14a3.65,3.65,0,0,0-.49-1.35c-.24-.36-.5-.47-1.64-.47H51.13v7.46c0,1.2.12,1.35,1.56,1.44v.42H48.34v-.42c1.38-.09,1.5-.24,1.5-1.44V6.32h-.94c-1.26,0-1.56.12-1.76.47a4.81,4.81,0,0,0-.49,1.35h-.44c.08-.91.15-1.9.18-2.73h.3c.21.35.41.38.83.38h6a.81.81,0,0,0,.77-.38h.32c0,.7.08,1.8.15,2.69Z" transform="translate(0 -0.09)"/><path class="cls-2" d="M56.18,15.65v-.42c1.24-.09,1.36-.18,1.36-1.47V7.68c0-1.29-.12-1.38-1.36-1.47V5.79h4v.42c-1.24.09-1.36.18-1.36,1.47v6.07c0,1.3.12,1.38,1.36,1.47v.42Z" transform="translate(0 -0.09)"/><path class="cls-2" d="M67.61,15.65v-.42c1-.12,1.09-.24.9-.83S68,13,67.67,12.05H64.44c-.24.68-.47,1.32-.67,2-.33,1-.2,1.11.94,1.21v.42H61.43v-.42c1-.14,1.17-.23,1.7-1.56l3.14-8,.47-.14c.94,2.61,2,5.49,2.93,8.13.49,1.3.68,1.44,1.67,1.53v.42ZM66.13,7.53h0c-.49,1.3-1,2.62-1.43,3.87h2.79Z" transform="translate(0 -0.09)"/><path class="cls-2" d="M82.94,6.21c-.85,0-1.21.24-1.27.91a21.27,21.27,0,0,0-.09,2.55v6.11h-.47L74.65,7.83h0v3.81a25.58,25.58,0,0,0,.09,2.56c.08.77.43,1,1.46,1v.42H72.57v-.42c.88,0,1.26-.24,1.33-1,0-.47.09-1.2.09-2.59V8.31c0-1.11,0-1.17-.3-1.53a1.64,1.64,0,0,0-1.35-.56V5.79h2.25l6.32,7.61h0V9.67a22.59,22.59,0,0,0-.11-2.52c-.08-.68-.44-.88-1.49-.94V5.79h3.58Z" transform="translate(0 -0.09)"/><path class="cls-2" d="M94.05,10.34c1.5.23,2.69.89,2.69,2.41A2.57,2.57,0,0,1,95.28,15a6.18,6.18,0,0,1-3,.61H89v-.42c1.3-.09,1.4-.18,1.4-1.46V7.65c0-1.26-.06-1.35-1.27-1.44V5.79H93a3.79,3.79,0,0,1,2.27.52A2.06,2.06,0,0,1,96.1,8a2.41,2.41,0,0,1-2,2.26Zm-2.43,3.41c0,1.09.29,1.38,1.26,1.38a2.13,2.13,0,0,0,2.35-2.23c0-1.56-1.06-2.24-2.91-2.24h-.7Zm.71-3.59c1.67,0,2.37-.67,2.37-1.94a1.82,1.82,0,0,0-2-1.94,2,2,0,0,0-.86.15c-.14.09-.2.26-.2.76v3Z" transform="translate(0 -0.09)"/><path class="cls-2" d="M102.37,6.21c-1.17.09-1.29.2-1.29,1.47v5.67c0,1.94-.3,3-1.3,3.91a4.1,4.1,0,0,1-1.41.88l-.2-.42a2.61,2.61,0,0,0,1.46-2,16.26,16.26,0,0,0,.17-2.88V7.68c0-1.27-.12-1.38-1.35-1.47V5.79h3.93Z" transform="translate(0 -0.09)"/><path class="cls-2" d="M111.5,13.25c-.09.5-.39,1.93-.53,2.4h-7.31v-.42c1.38-.11,1.5-.23,1.5-1.46v-6c0-1.36-.12-1.41-1.3-1.52V5.79h6.76c0,.38.08,1.41.12,2.18L110.3,8a3.9,3.9,0,0,0-.49-1.3c-.21-.32-.62-.43-1.71-.43H107c-.47,0-.5,0-.5.49v3.44h1.42c1.37,0,1.44-.12,1.64-1.14H110V12h-.44c-.2-1.09-.3-1.18-1.62-1.18h-1.44V13.7c0,.71.09,1,.36,1.23a3.42,3.42,0,0,0,1.58.2c1.15,0,1.58-.12,1.91-.52a4.41,4.41,0,0,0,.74-1.43Z" transform="translate(0 -0.09)"/><path class="cls-2" d="M121.93,15.77l-.53,0a2.76,2.76,0,0,1-2.46-1.38c-.53-.74-1.08-1.68-1.53-2.43-.26-.42-.52-.61-1.3-.61h-.49v2.41c0,1.29.14,1.38,1.35,1.47v.42h-4v-.42c1.24-.09,1.38-.18,1.38-1.47V7.65c0-1.29-.12-1.33-1.3-1.44V5.79h3.76a4.28,4.28,0,0,1,2.43.52,2.27,2.27,0,0,1,1,2,2.77,2.77,0,0,1-1.93,2.59c.26.5.89,1.52,1.35,2.2a13.15,13.15,0,0,0,1.23,1.58,2.16,2.16,0,0,0,1.09.71Zm-5.58-4.93a2.51,2.51,0,0,0,1.65-.42,2.18,2.18,0,0,0,.83-1.88,2.05,2.05,0,0,0-2.23-2.24,1.49,1.49,0,0,0-.82.15c-.11.08-.17.26-.17.67v3.73Z" transform="translate(0 -0.09)"/><path class="cls-2" d="M132.09,15.77l-.53,0a2.76,2.76,0,0,1-2.46-1.38c-.53-.74-1.08-1.68-1.53-2.43-.26-.42-.52-.61-1.3-.61h-.49v2.41c0,1.29.14,1.38,1.35,1.47v.42h-4v-.42c1.24-.09,1.38-.18,1.38-1.47V7.65c0-1.29-.12-1.33-1.3-1.44V5.79H127a4.28,4.28,0,0,1,2.43.52,2.27,2.27,0,0,1,1,2,2.76,2.76,0,0,1-1.93,2.59c.26.5.89,1.52,1.35,2.2a13.15,13.15,0,0,0,1.23,1.58,2.16,2.16,0,0,0,1.09.71Zm-5.58-4.93a2.51,2.51,0,0,0,1.65-.42A2.18,2.18,0,0,0,129,8.53a2.05,2.05,0,0,0-2.23-2.24,1.48,1.48,0,0,0-.82.15c-.11.08-.17.26-.17.67v3.73Z" transform="translate(0 -0.09)"/><path class="cls-2" d="M133.48,15.65v-.42c1.24-.09,1.36-.18,1.36-1.47V7.68c0-1.29-.12-1.38-1.36-1.47V5.79h4v.42c-1.24.09-1.36.18-1.36,1.47v6.07c0,1.3.12,1.38,1.36,1.47v.42Z" transform="translate(0 -0.09)"/><path class="cls-2" d="M149.89,6.21c-.85,0-1.21.24-1.27.91a21.27,21.27,0,0,0-.09,2.55v6.11h-.47l-6.46-7.95h0v3.81a25.58,25.58,0,0,0,.09,2.56c.08.77.42,1,1.46,1v.42h-3.59v-.42c.88,0,1.26-.24,1.33-1,0-.47.09-1.2.09-2.59V8.31c0-1.11,0-1.17-.3-1.53a1.64,1.64,0,0,0-1.35-.56V5.79h2.24l6.32,7.61h0V9.67a22.69,22.69,0,0,0-.11-2.52c-.08-.68-.44-.88-1.49-.94V5.79h3.58Z" transform="translate(0 -0.09)"/><path class="cls-2" d="M160.74,11.49c-.91.14-1,.21-1,1.11v1.29a6.87,6.87,0,0,0,.11,1.43,14.69,14.69,0,0,1-3.4.56c-3.34,0-5.57-2.08-5.57-5.08,0-3.52,2.82-5.23,5.79-5.23a12.67,12.67,0,0,1,2.91.44c0,.53.12,1.37.24,2.37l-.42.09a2.64,2.64,0,0,0-3-2.35c-2.32,0-4,1.7-4,4.5,0,2.18,1.29,4.73,4.22,4.73a3,3,0,0,0,1.32-.27c.3-.17.49-.35.49-1V12.79c0-1.09-.11-1.18-1.59-1.3v-.41h3.85Z" transform="translate(0 -0.09)"/></svg>